<mxfile host="app.diagrams.net" modified="2022-11-02T08:21:26.510Z" agent="5.0 (Windows NT 10.0; Win64; x64) AppleWebKit/537.36 (KHTML, like Gecko) Chrome/106.0.0.0 Safari/537.36" etag="PSMt72qRWdolxPtUimWf" version="20.5.1" type="github" pages="3">
  <diagram id="d4oZ5c8wD7mMRkENbx5g" name="服务器处理客户端请求">
    <mxGraphModel dx="782" dy="436" grid="1" gridSize="10" guides="1" tooltips="1" connect="1" arrows="1" fold="1" page="1" pageScale="1" pageWidth="827" pageHeight="1169" math="0" shadow="0">
      <root>
        <mxCell id="0" />
        <mxCell id="1" parent="0" />
        <mxCell id="Y_myvK8Z_m-t3JicxtlA-18" value="" style="rounded=0;whiteSpace=wrap;html=1;dashed=1;fontFamily=Verdana;" parent="1" vertex="1">
          <mxGeometry x="130" y="110" width="400" height="330" as="geometry" />
        </mxCell>
        <mxCell id="Y_myvK8Z_m-t3JicxtlA-17" value="" style="rounded=0;whiteSpace=wrap;html=1;dashed=1;fontFamily=Verdana;" parent="1" vertex="1">
          <mxGeometry x="140" y="120" width="380" height="50" as="geometry" />
        </mxCell>
        <mxCell id="Y_myvK8Z_m-t3JicxtlA-16" value="" style="rounded=0;whiteSpace=wrap;html=1;fontFamily=Verdana;dashed=1;" parent="1" vertex="1">
          <mxGeometry x="140" y="180" width="380" height="170" as="geometry" />
        </mxCell>
        <mxCell id="Y_myvK8Z_m-t3JicxtlA-15" value="" style="rounded=0;whiteSpace=wrap;html=1;fontFamily=Verdana;dashed=1;" parent="1" vertex="1">
          <mxGeometry x="140" y="365" width="380" height="60" as="geometry" />
        </mxCell>
        <mxCell id="Y_myvK8Z_m-t3JicxtlA-23" style="edgeStyle=orthogonalEdgeStyle;rounded=0;orthogonalLoop=1;jettySize=auto;html=1;exitX=0.5;exitY=1;exitDx=0;exitDy=0;entryX=0.5;entryY=0;entryDx=0;entryDy=0;fontFamily=Verdana;" parent="1" source="Y_myvK8Z_m-t3JicxtlA-3" target="Y_myvK8Z_m-t3JicxtlA-5" edge="1">
          <mxGeometry relative="1" as="geometry" />
        </mxCell>
        <mxCell id="Y_myvK8Z_m-t3JicxtlA-3" value="客户端" style="rounded=1;whiteSpace=wrap;html=1;fillColor=#fff2cc;strokeColor=#d6b656;" parent="1" vertex="1">
          <mxGeometry x="280" y="60" width="100" height="30" as="geometry" />
        </mxCell>
        <mxCell id="Y_myvK8Z_m-t3JicxtlA-24" style="edgeStyle=orthogonalEdgeStyle;rounded=0;orthogonalLoop=1;jettySize=auto;html=1;exitX=0.5;exitY=1;exitDx=0;exitDy=0;entryX=0.5;entryY=0;entryDx=0;entryDy=0;fontFamily=Verdana;" parent="1" source="Y_myvK8Z_m-t3JicxtlA-5" target="Y_myvK8Z_m-t3JicxtlA-6" edge="1">
          <mxGeometry relative="1" as="geometry" />
        </mxCell>
        <mxCell id="Y_myvK8Z_m-t3JicxtlA-5" value="处理连接" style="rounded=1;whiteSpace=wrap;html=1;fillColor=#1ba1e2;strokeColor=#006EAF;fontColor=#ffffff;" parent="1" vertex="1">
          <mxGeometry x="280" y="132" width="100" height="30" as="geometry" />
        </mxCell>
        <mxCell id="Y_myvK8Z_m-t3JicxtlA-25" style="edgeStyle=orthogonalEdgeStyle;rounded=0;orthogonalLoop=1;jettySize=auto;html=1;exitX=0.5;exitY=1;exitDx=0;exitDy=0;entryX=0.5;entryY=0;entryDx=0;entryDy=0;fontFamily=Verdana;" parent="1" source="Y_myvK8Z_m-t3JicxtlA-6" target="Y_myvK8Z_m-t3JicxtlA-7" edge="1">
          <mxGeometry relative="1" as="geometry" />
        </mxCell>
        <mxCell id="Y_myvK8Z_m-t3JicxtlA-6" value="查询缓存" style="rounded=1;whiteSpace=wrap;html=1;fillColor=#1ba1e2;fontColor=#ffffff;strokeColor=#006EAF;" parent="1" vertex="1">
          <mxGeometry x="280" y="193" width="100" height="30" as="geometry" />
        </mxCell>
        <mxCell id="Y_myvK8Z_m-t3JicxtlA-26" style="edgeStyle=orthogonalEdgeStyle;rounded=0;orthogonalLoop=1;jettySize=auto;html=1;exitX=0.5;exitY=1;exitDx=0;exitDy=0;entryX=0.5;entryY=0;entryDx=0;entryDy=0;fontFamily=Verdana;" parent="1" source="Y_myvK8Z_m-t3JicxtlA-7" target="Y_myvK8Z_m-t3JicxtlA-8" edge="1">
          <mxGeometry relative="1" as="geometry" />
        </mxCell>
        <mxCell id="Y_myvK8Z_m-t3JicxtlA-7" value="语法解析" style="rounded=1;whiteSpace=wrap;html=1;fillColor=#1ba1e2;fontColor=#ffffff;strokeColor=#006EAF;" parent="1" vertex="1">
          <mxGeometry x="280" y="250" width="100" height="30" as="geometry" />
        </mxCell>
        <mxCell id="Y_myvK8Z_m-t3JicxtlA-8" value="查询优化" style="rounded=1;whiteSpace=wrap;html=1;fillColor=#1ba1e2;fontColor=#ffffff;strokeColor=#006EAF;" parent="1" vertex="1">
          <mxGeometry x="280" y="310" width="100" height="30" as="geometry" />
        </mxCell>
        <mxCell id="Y_myvK8Z_m-t3JicxtlA-9" value="&lt;font face=&quot;Verdana&quot;&gt;MyISAM&lt;/font&gt;" style="shape=cylinder3;whiteSpace=wrap;html=1;boundedLbl=1;backgroundOutline=1;size=15;fillColor=#d5e8d4;gradientColor=#97d077;strokeColor=#82b366;" parent="1" vertex="1">
          <mxGeometry x="160" y="370" width="70" height="50" as="geometry" />
        </mxCell>
        <mxCell id="Y_myvK8Z_m-t3JicxtlA-10" value="&lt;font face=&quot;Verdana&quot;&gt;InnoDB&lt;/font&gt;" style="shape=cylinder3;whiteSpace=wrap;html=1;boundedLbl=1;backgroundOutline=1;size=15;fillColor=#d5e8d4;gradientColor=#97d077;strokeColor=#82b366;" parent="1" vertex="1">
          <mxGeometry x="250" y="370" width="70" height="50" as="geometry" />
        </mxCell>
        <mxCell id="Y_myvK8Z_m-t3JicxtlA-11" value="&lt;font face=&quot;Verdana&quot;&gt;Memory&lt;/font&gt;" style="shape=cylinder3;whiteSpace=wrap;html=1;boundedLbl=1;backgroundOutline=1;size=15;fillColor=#d5e8d4;gradientColor=#97d077;strokeColor=#82b366;" parent="1" vertex="1">
          <mxGeometry x="340" y="370" width="70" height="50" as="geometry" />
        </mxCell>
        <mxCell id="Y_myvK8Z_m-t3JicxtlA-12" value="...." style="shape=cylinder3;whiteSpace=wrap;html=1;boundedLbl=1;backgroundOutline=1;size=15;fillColor=#d5e8d4;gradientColor=#97d077;strokeColor=#82b366;" parent="1" vertex="1">
          <mxGeometry x="430" y="370" width="70" height="50" as="geometry" />
        </mxCell>
        <mxCell id="Y_myvK8Z_m-t3JicxtlA-13" value="" style="verticalLabelPosition=bottom;verticalAlign=top;html=1;shape=mxgraph.basic.diag_snip_rect;dx=6;fillColor=#fff2cc;strokeColor=#d6b656;gradientColor=#ffd966;" parent="1" vertex="1">
          <mxGeometry x="250" y="450" width="160" height="30" as="geometry" />
        </mxCell>
        <mxCell id="Y_myvK8Z_m-t3JicxtlA-14" value="文件系统" style="text;html=1;strokeColor=none;fillColor=none;align=center;verticalAlign=middle;whiteSpace=wrap;rounded=0;fontFamily=Verdana;" parent="1" vertex="1">
          <mxGeometry x="300" y="450" width="60" height="30" as="geometry" />
        </mxCell>
        <mxCell id="Y_myvK8Z_m-t3JicxtlA-29" value="" style="endArrow=classic;html=1;rounded=0;fontFamily=Verdana;exitX=0.5;exitY=1;exitDx=0;exitDy=0;entryX=0.5;entryY=0;entryDx=0;entryDy=0;entryPerimeter=0;" parent="1" source="Y_myvK8Z_m-t3JicxtlA-8" target="Y_myvK8Z_m-t3JicxtlA-10" edge="1">
          <mxGeometry width="50" height="50" relative="1" as="geometry">
            <mxPoint x="390" y="300" as="sourcePoint" />
            <mxPoint x="440" y="250" as="targetPoint" />
          </mxGeometry>
        </mxCell>
        <mxCell id="Y_myvK8Z_m-t3JicxtlA-30" value="" style="endArrow=classic;html=1;rounded=0;fontFamily=Verdana;exitX=0.5;exitY=1;exitDx=0;exitDy=0;exitPerimeter=0;entryX=0.5;entryY=0;entryDx=0;entryDy=0;" parent="1" source="Y_myvK8Z_m-t3JicxtlA-10" target="Y_myvK8Z_m-t3JicxtlA-14" edge="1">
          <mxGeometry width="50" height="50" relative="1" as="geometry">
            <mxPoint x="390" y="300" as="sourcePoint" />
            <mxPoint x="440" y="250" as="targetPoint" />
          </mxGeometry>
        </mxCell>
        <mxCell id="Y_myvK8Z_m-t3JicxtlA-31" value="&lt;font style=&quot;font-size: 14px;&quot;&gt;连接管理&lt;/font&gt;" style="whiteSpace=wrap;html=1;shape=mxgraph.basic.rectCallout;dx=11.4;dy=19;boundedLbl=1;fontFamily=Verdana;fillColor=#cdeb8b;strokeColor=#36393d;" parent="1" vertex="1">
          <mxGeometry x="530" y="90" width="140" height="60" as="geometry" />
        </mxCell>
        <mxCell id="Y_myvK8Z_m-t3JicxtlA-32" value="&lt;font style=&quot;font-size: 14px;&quot;&gt;解析与优化&lt;/font&gt;" style="whiteSpace=wrap;html=1;shape=mxgraph.basic.rectCallout;dx=11.4;dy=19;boundedLbl=1;fontFamily=Verdana;fillColor=#cdeb8b;strokeColor=#36393d;" parent="1" vertex="1">
          <mxGeometry x="530" y="220" width="140" height="60" as="geometry" />
        </mxCell>
        <mxCell id="Y_myvK8Z_m-t3JicxtlA-34" value="&lt;font style=&quot;font-size: 14px;&quot;&gt;存储引擎&lt;/font&gt;" style="whiteSpace=wrap;html=1;shape=mxgraph.basic.rectCallout;dx=11.4;dy=19;boundedLbl=1;fontFamily=Verdana;fillColor=#cdeb8b;strokeColor=#36393d;" parent="1" vertex="1">
          <mxGeometry x="530" y="340" width="140" height="60" as="geometry" />
        </mxCell>
      </root>
    </mxGraphModel>
  </diagram>
  <diagram id="JTwCRdkqRf-yH1NHdIYG" name="请求编码处理过程">
    <mxGraphModel dx="782" dy="436" grid="1" gridSize="10" guides="1" tooltips="1" connect="1" arrows="1" fold="1" page="1" pageScale="1" pageWidth="827" pageHeight="1169" math="0" shadow="0">
      <root>
        <mxCell id="0" />
        <mxCell id="1" parent="0" />
        <mxCell id="g4mIn4xNetN_Wq16nZw8-1" value="客户端" style="rounded=1;whiteSpace=wrap;html=1;fillColor=#fff2cc;strokeColor=#d6b656;" parent="1" vertex="1">
          <mxGeometry x="80" y="225" width="100" height="30" as="geometry" />
        </mxCell>
        <mxCell id="uSiH-bjTc7MtGPjzQepE-1" value="" style="rounded=1;whiteSpace=wrap;html=1;dashed=1;fillColor=#d5e8d4;strokeColor=#82b366;" parent="1" vertex="1">
          <mxGeometry x="250" y="80" width="370" height="320" as="geometry" />
        </mxCell>
        <mxCell id="5ORI9rTE6pkDet58Hjhs-1" value="&lt;font style=&quot;font-size: 14px;&quot;&gt;服务器处理过程&lt;/font&gt;" style="text;html=1;strokeColor=none;fillColor=none;align=center;verticalAlign=middle;whiteSpace=wrap;rounded=0;" parent="1" vertex="1">
          <mxGeometry x="380" y="80" width="110" height="30" as="geometry" />
        </mxCell>
        <mxCell id="rZMv2dQdLgAZXNuSSkDK-4" style="edgeStyle=orthogonalEdgeStyle;rounded=0;orthogonalLoop=1;jettySize=auto;html=1;exitX=0.5;exitY=1;exitDx=0;exitDy=0;entryX=0.5;entryY=0;entryDx=0;entryDy=0;fontSize=14;" parent="1" source="lV5WM6oxoa0fZzl4xDW7-1" target="lV5WM6oxoa0fZzl4xDW7-5" edge="1">
          <mxGeometry relative="1" as="geometry" />
        </mxCell>
        <mxCell id="lV5WM6oxoa0fZzl4xDW7-1" value="将 &lt;span style=&quot;background-color: rgb(255, 217, 28);&quot;&gt;character_set_client&lt;/span&gt; 的编码转换为&lt;br&gt;&lt;span style=&quot;background-color: rgb(255, 217, 28);&quot;&gt;character_set_connection&lt;/span&gt; 的编码" style="rounded=0;whiteSpace=wrap;html=1;fontSize=14;fillColor=#b0e3e6;strokeColor=#0e8088;" parent="1" vertex="1">
          <mxGeometry x="290" y="120" width="290" height="60" as="geometry" />
        </mxCell>
        <mxCell id="rZMv2dQdLgAZXNuSSkDK-5" style="edgeStyle=orthogonalEdgeStyle;rounded=0;orthogonalLoop=1;jettySize=auto;html=1;exitX=0.5;exitY=1;exitDx=0;exitDy=0;entryX=0.5;entryY=0;entryDx=0;entryDy=0;fontSize=14;" parent="1" source="lV5WM6oxoa0fZzl4xDW7-5" target="lV5WM6oxoa0fZzl4xDW7-6" edge="1">
          <mxGeometry relative="1" as="geometry" />
        </mxCell>
        <mxCell id="lV5WM6oxoa0fZzl4xDW7-5" value="将 &lt;span style=&quot;background-color: rgb(255, 217, 28);&quot;&gt;character_set_connection&lt;/span&gt; 的编码&lt;br&gt;转换具体列对应的编码" style="rounded=0;whiteSpace=wrap;html=1;fontSize=14;fillColor=#b0e3e6;strokeColor=#0e8088;" parent="1" vertex="1">
          <mxGeometry x="290" y="225" width="290" height="60" as="geometry" />
        </mxCell>
        <mxCell id="lV5WM6oxoa0fZzl4xDW7-6" value="将查询结果从具体列使用的编码转换为&lt;br&gt;&lt;span style=&quot;background-color: rgb(255, 217, 28);&quot;&gt;character_set_results&lt;/span&gt; 的编码" style="rounded=0;whiteSpace=wrap;html=1;fontSize=14;fillColor=#b0e3e6;strokeColor=#0e8088;" parent="1" vertex="1">
          <mxGeometry x="290" y="320" width="290" height="60" as="geometry" />
        </mxCell>
        <mxCell id="rZMv2dQdLgAZXNuSSkDK-2" value="" style="endArrow=classic;html=1;rounded=0;fontSize=14;entryX=0;entryY=0.5;entryDx=0;entryDy=0;exitX=0.5;exitY=0;exitDx=0;exitDy=0;" parent="1" source="g4mIn4xNetN_Wq16nZw8-1" target="lV5WM6oxoa0fZzl4xDW7-1" edge="1">
          <mxGeometry width="50" height="50" relative="1" as="geometry">
            <mxPoint x="180" y="230" as="sourcePoint" />
            <mxPoint x="230" y="180" as="targetPoint" />
          </mxGeometry>
        </mxCell>
        <mxCell id="rZMv2dQdLgAZXNuSSkDK-8" value="" style="endArrow=classic;html=1;rounded=0;fontSize=14;exitX=0;exitY=0.5;exitDx=0;exitDy=0;entryX=0.5;entryY=1;entryDx=0;entryDy=0;" parent="1" source="lV5WM6oxoa0fZzl4xDW7-6" target="g4mIn4xNetN_Wq16nZw8-1" edge="1">
          <mxGeometry width="50" height="50" relative="1" as="geometry">
            <mxPoint x="200" y="330" as="sourcePoint" />
            <mxPoint x="250" y="280" as="targetPoint" />
          </mxGeometry>
        </mxCell>
        <mxCell id="rZMv2dQdLgAZXNuSSkDK-12" value="使用操作系统的字符集&lt;b&gt;&lt;font color=&quot;#ff0000&quot;&gt;编码&lt;/font&gt;&lt;/b&gt;请求字符串" style="text;html=1;strokeColor=none;fillColor=none;align=center;verticalAlign=middle;whiteSpace=wrap;rounded=0;dashed=1;labelBackgroundColor=none;fontSize=14;rotation=-25;" parent="1" vertex="1">
          <mxGeometry x="120" y="150" width="130" height="50" as="geometry" />
        </mxCell>
        <mxCell id="rZMv2dQdLgAZXNuSSkDK-14" value="使用操作系统的字符集&lt;font color=&quot;#ff0000&quot;&gt;&lt;b&gt;解码&lt;/b&gt;&lt;/font&gt;响应字符串" style="text;html=1;strokeColor=none;fillColor=none;align=center;verticalAlign=middle;whiteSpace=wrap;rounded=0;dashed=1;labelBackgroundColor=none;fontSize=14;rotation=30;" parent="1" vertex="1">
          <mxGeometry x="120" y="300" width="130" height="50" as="geometry" />
        </mxCell>
      </root>
    </mxGraphModel>
  </diagram>
  <diagram id="BeE83QxPG2JuytpiEz03" name="Compact行格式">
    <mxGraphModel dx="782" dy="436" grid="1" gridSize="10" guides="1" tooltips="1" connect="1" arrows="1" fold="1" page="1" pageScale="1" pageWidth="827" pageHeight="1169" math="0" shadow="0">
      <root>
        <mxCell id="0" />
        <mxCell id="1" parent="0" />
        <mxCell id="QNaESwGzr8rM0D7BNXny-1" value="变长字段长度列表" style="rounded=0;whiteSpace=wrap;html=1;fillColor=#1ba1e2;strokeColor=#006EAF;fontColor=#ffffff;" vertex="1" parent="1">
          <mxGeometry x="110" y="190" width="120" height="40" as="geometry" />
        </mxCell>
        <mxCell id="QNaESwGzr8rM0D7BNXny-2" value="NULL 值列表" style="rounded=0;whiteSpace=wrap;html=1;fillColor=#60a917;fontColor=#ffffff;strokeColor=#2D7600;" vertex="1" parent="1">
          <mxGeometry x="230" y="190" width="90" height="40" as="geometry" />
        </mxCell>
        <mxCell id="QNaESwGzr8rM0D7BNXny-3" value="记录头信息" style="rounded=0;whiteSpace=wrap;html=1;fillColor=#1ba1e2;strokeColor=#006EAF;fontColor=#ffffff;" vertex="1" parent="1">
          <mxGeometry x="320" y="190" width="90" height="40" as="geometry" />
        </mxCell>
        <mxCell id="QNaESwGzr8rM0D7BNXny-4" value="列1的值" style="rounded=0;whiteSpace=wrap;html=1;fillColor=#fad7ac;strokeColor=#b46504;" vertex="1" parent="1">
          <mxGeometry x="410" y="190" width="80" height="40" as="geometry" />
        </mxCell>
        <mxCell id="Gu8BlMnQRS-qkP6g1Zi7-1" value="..." style="rounded=0;whiteSpace=wrap;html=1;fillColor=#fad7ac;strokeColor=#b46504;" vertex="1" parent="1">
          <mxGeometry x="490" y="190" width="60" height="40" as="geometry" />
        </mxCell>
        <mxCell id="Gu8BlMnQRS-qkP6g1Zi7-2" value="列n的值" style="rounded=0;whiteSpace=wrap;html=1;fillColor=#fad7ac;strokeColor=#b46504;" vertex="1" parent="1">
          <mxGeometry x="550" y="190" width="80" height="40" as="geometry" />
        </mxCell>
        <mxCell id="Gu8BlMnQRS-qkP6g1Zi7-3" value="" style="endArrow=none;html=1;rounded=0;" edge="1" parent="1">
          <mxGeometry width="50" height="50" relative="1" as="geometry">
            <mxPoint x="110" y="190" as="sourcePoint" />
            <mxPoint x="110" y="120" as="targetPoint" />
          </mxGeometry>
        </mxCell>
        <mxCell id="Gu8BlMnQRS-qkP6g1Zi7-4" value="" style="endArrow=none;html=1;rounded=0;" edge="1" parent="1">
          <mxGeometry width="50" height="50" relative="1" as="geometry">
            <mxPoint x="409" y="190" as="sourcePoint" />
            <mxPoint x="409" y="120" as="targetPoint" />
          </mxGeometry>
        </mxCell>
        <mxCell id="Gu8BlMnQRS-qkP6g1Zi7-5" value="" style="endArrow=none;html=1;rounded=0;" edge="1" parent="1">
          <mxGeometry width="50" height="50" relative="1" as="geometry">
            <mxPoint x="630" y="190" as="sourcePoint" />
            <mxPoint x="630" y="120" as="targetPoint" />
          </mxGeometry>
        </mxCell>
        <mxCell id="Gu8BlMnQRS-qkP6g1Zi7-6" value="" style="endArrow=classic;startArrow=classic;html=1;rounded=0;" edge="1" parent="1">
          <mxGeometry width="50" height="50" relative="1" as="geometry">
            <mxPoint x="110" y="137" as="sourcePoint" />
            <mxPoint x="410" y="137" as="targetPoint" />
          </mxGeometry>
        </mxCell>
        <mxCell id="Gu8BlMnQRS-qkP6g1Zi7-8" value="&lt;font style=&quot;font-size: 14px;&quot;&gt;&amp;nbsp;记录的额外信息&amp;nbsp;&lt;/font&gt;" style="edgeLabel;html=1;align=center;verticalAlign=middle;resizable=0;points=[];" vertex="1" connectable="0" parent="Gu8BlMnQRS-qkP6g1Zi7-6">
          <mxGeometry x="-0.0889" y="1" relative="1" as="geometry">
            <mxPoint as="offset" />
          </mxGeometry>
        </mxCell>
        <mxCell id="Gu8BlMnQRS-qkP6g1Zi7-7" value="" style="endArrow=classic;startArrow=classic;html=1;rounded=0;" edge="1" parent="1">
          <mxGeometry width="50" height="50" relative="1" as="geometry">
            <mxPoint x="410" y="137" as="sourcePoint" />
            <mxPoint x="630" y="137" as="targetPoint" />
          </mxGeometry>
        </mxCell>
        <mxCell id="Gu8BlMnQRS-qkP6g1Zi7-9" value="&amp;nbsp;记录的真实数据&amp;nbsp;" style="edgeLabel;html=1;align=center;verticalAlign=middle;resizable=0;points=[];fontSize=14;" vertex="1" connectable="0" parent="Gu8BlMnQRS-qkP6g1Zi7-7">
          <mxGeometry x="-0.1758" y="2" relative="1" as="geometry">
            <mxPoint as="offset" />
          </mxGeometry>
        </mxCell>
      </root>
    </mxGraphModel>
  </diagram>
</mxfile>
